<svg xmlns="http://www.w3.org/2000/svg" height="363.14" width="540.96" version="1.1" data-name="Слой 1" id="Слой_1"><defs id="defs7"><clipPath id="clip-path"><path style="fill:none" id="rect4" d="M229.52 318.43h540.97v363.15H229.52z"/></clipPath><style id="style2">.cls-2{clip-path:url(#clip-path)}.cls-3{fill:#1d1d1b}</style></defs><g transform="translate(-229.52 -318.43)" style="fill:#f5821f;fill-opacity:1;fill-rule:nonzero" id="g11" clip-path="url(#clip-path)" class="cls-2"><path style="fill:#f5821f;fill-opacity:1;fill-rule:nonzero" id="path9" d="M338.68 546.92a46.31 46.31 0 0 0 15.4-2.46 34 34 0 0 0 12.28-7.46 36.65 36.65 0 0 0 8.47-12.8 60.43 60.43 0 0 0 4-18.61h-57.55v-11.96h57.52a57.82 57.82 0 0 0-4-18.12 38.21 38.21 0 0 0-8.32-12.65 32.3 32.3 0 0 0-11.82-7.4 43.22 43.22 0 0 0-14.49-2.38 53.88 53.88 0 0 0-19.91 3.75 55.21 55.21 0 0 0-18.2 12.17l-7.63-9.54a63.92 63.92 0 0 1 21.06-13.37 70.26 70.26 0 0 1 26.23-4.93 77.21 77.21 0 0 1 24.95 3.84 52.67 52.67 0 0 1 19.22 11.29 51.06 51.06 0 0 1 12.44 18.45 74.56 74.56 0 0 1 0 50.58 49.79 49.79 0 0 1-12.6 18.45A53.56 53.56 0 0 1 366.06 555a82.19 82.19 0 0 1-25.86 3.81 70.52 70.52 0 0 1-26.2-4.89 63.77 63.77 0 0 1-21-13.37l7.62-9.54a55.35 55.35 0 0 0 18.23 12.17 54.16 54.16 0 0 0 19.92 3.74" class="cls-3"/></g><path transform="translate(-229.52 -318.43)" style="fill:#f5821f;fill-opacity:1" id="polygon13" class="cls-3" d="M539.28 444.33h32.81v111.33h-22.13v-89.05h-1.52l-36.62 89.05h-25.94l-36.61-89.05h-1.52v89.05h-22.12V444.33h32.8l39.67 95.43h1.52z"/><path transform="translate(-229.52 -318.43)" style="fill:#f5821f;fill-opacity:1" id="polygon15" class="cls-3" d="m681.92 555.66-35.08-49.3h-26.71v49.3h-22.12V444.33h22.12v50.11h25.17l35.1-50.11h24.4l-38.13 54.87 40.42 56.46z"/><g transform="translate(-229.52 -318.43)" style="fill:#f5821f;fill-opacity:1" id="g19" clip-path="url(#clip-path)" class="cls-2"><path style="fill:#f5821f;fill-opacity:1" id="path17" d="M732.08 575c-18.32 21.82-42.53 38.14-68 50.83-25.47 12.69-53.19 21.17-81.18 26.66a431.41 431.41 0 0 1-165.8 0c-28-5.52-55.6-13.94-81.18-26.67-25.58-12.73-49.67-29-68-50.83a135 135 0 0 1-26.34-48.44 95 95 0 0 1 0-53.1A135 135 0 0 1 267.92 425c18.33-21.82 42.54-38.14 68-50.83 25.46-12.69 53.19-21.17 81.18-26.67a431.94 431.94 0 0 1 165.8 0c28 5.53 55.6 13.94 81.18 26.68 25.58 12.74 49.68 29 68 50.83a134.8 134.8 0 0 1 26.34 48.44 95 95 0 0 1 0 53.1A134.89 134.89 0 0 1 732.08 575m7.72-156.27c-18.51-23.94-42.93-42.54-69.06-57.22C618.77 332.35 559.11 320 500 318.43c-59.11 1.57-118.76 13.92-170.74 43.07-26.12 14.68-50.55 33.28-69.06 57.22C242 441.66 230 470.36 229.51 500c.47 29.63 12.47 58.34 30.69 81.28 18.51 23.94 42.94 42.54 69.06 57.21 52 29.16 111.63 41.53 170.74 43.08 59.11-1.55 118.77-13.92 170.74-43.08 26.13-14.67 50.55-33.27 69.06-57.21C758 558.34 770 529.63 770.48 500c-.48-29.64-12.48-58.34-30.68-81.28" class="cls-3"/></g></svg>